<svg width="1264" height="1229" viewBox="0 0 1264 1229" fill="none" xmlns="http://www.w3.org/2000/svg">
<path d="M512 0C794.77 0 1024 229.23 1024 512C1024 794.77 794.77 1024 512 1024C229.23 1024 0 794.77 0 512C0 229.23 229.23 0 512 0ZM512 143.36C308.406 143.36 143.36 308.406 143.36 512C143.36 715.594 308.406 880.64 512 880.64C715.594 880.64 880.64 715.594 880.64 512C880.64 308.406 715.594 143.36 512 143.36Z" fill="#E4E4E4"/>
<path d="M784.322 864.981L897.465 751.838L1207.2 1056.93C1278.53 1149.41 1166.53 1234.41 1094.05 1170.08L784.322 864.981Z" fill="#E4E4E4"/>
</svg>
